<svg xmlns="http://www.w3.org/2000/svg" version="1.1" xmlns:xlink="http://www.w3.org/1999/xlink" width="512" height="512" x="0" y="0" viewBox="0 0 512 512" style="enable-background:new 0 0 512 512" xml:space="preserve" class=""><g><path d="M484.5 198.5h-84.25l-52-86.65a27.65 27.65 0 0 0-23.57-13.35H135.23a47.29 47.29 0 0 0-37.1 17.83L32.4 198.5h-4.9A27.54 27.54 0 0 0 0 226v121a17.52 17.52 0 0 0 17.5 17.5h26.63a57.5 57.5 0 0 0 113.74 0h176.26a57.5 57.5 0 0 0 113.74 0h46.63A17.52 17.52 0 0 0 512 347V226a27.53 27.53 0 0 0-27.5-27.5Zm-149.1-78.93 47.35 78.93H263.5v-85h61.18a12.59 12.59 0 0 1 10.72 6.07Zm-225.55 6.13a32.35 32.35 0 0 1 25.38-12.2H248.5v85H51.6ZM15 347V226a12.52 12.52 0 0 1 12.5-12.5h221v136h-90.38a57.49 57.49 0 0 0-114.24 0H17.5A2.51 2.51 0 0 1 15 347Zm86 51.5a42.5 42.5 0 1 1 42.5-42.5 42.55 42.55 0 0 1-42.5 42.5Zm290 0a42.5 42.5 0 1 1 42.5-42.5 42.55 42.55 0 0 1-42.5 42.5Zm103.5-49h-46.38a57.49 57.49 0 0 0-114.24 0H263.5v-136h221A12.51 12.51 0 0 1 497 226v17.5h-22.5A27.54 27.54 0 0 0 447 271v10a27.54 27.54 0 0 0 27.5 27.5H497V347a2.5 2.5 0 0 1-2.5 2.5Zm2.5-91v35h-22.5A12.52 12.52 0 0 1 462 281v-10a12.52 12.52 0 0 1 12.5-12.5Z" fill="#ef4444" opacity="1" data-original="#000000" class=""></path><path d="M391 328.5a27.5 27.5 0 1 0 27.5 27.5 27.54 27.54 0 0 0-27.5-27.5Zm0 40a12.5 12.5 0 1 1 12.5-12.5 12.52 12.52 0 0 1-12.5 12.5ZM101 328.5a27.5 27.5 0 1 0 27.5 27.5 27.54 27.54 0 0 0-27.5-27.5Zm0 40a12.5 12.5 0 1 1 12.5-12.5 12.52 12.52 0 0 1-12.5 12.5ZM216 297a7.5 7.5 0 0 0 7.5-7.5v-16a7.5 7.5 0 0 0-15 0v16a7.5 7.5 0 0 0 7.5 7.5ZM296 266a7.5 7.5 0 0 0-7.5 7.5v16a7.5 7.5 0 0 0 15 0v-16a7.5 7.5 0 0 0-7.5-7.5Z" fill="#ef4444" opacity="1" data-original="#000000" class=""></path></g></svg>