<svg xmlns="http://www.w3.org/2000/svg" version="1.1" xmlns:xlink="http://www.w3.org/1999/xlink" width="512" height="512" x="0" y="0" viewBox="0 0 512 512" style="enable-background:new 0 0 512 512" xml:space="preserve" class=""><g><path d="M256 317a77.5 77.5 0 1 0 77.5 77.5A77.59 77.59 0 0 0 256 317Zm0 140a62.5 62.5 0 1 1 62.5-62.5A62.57 62.57 0 0 1 256 457Z" fill="#ef4444" opacity="1" data-original="#000000" class=""></path><path d="M256 367a27.5 27.5 0 1 0 27.5 27.5A27.54 27.54 0 0 0 256 367Zm0 40a12.5 12.5 0 1 1 12.5-12.5A12.52 12.52 0 0 1 256 407ZM77.5 115A37.5 37.5 0 1 0 40 77.5 37.54 37.54 0 0 0 77.5 115Zm0-60A22.5 22.5 0 1 1 55 77.5 22.52 22.52 0 0 1 77.5 55ZM427 117.5A27.5 27.5 0 1 0 454.5 90a27.54 27.54 0 0 0-27.5 27.5Zm40 0a12.5 12.5 0 1 1-12.5-12.5 12.52 12.52 0 0 1 12.5 12.5Z" fill="#ef4444" opacity="1" data-original="#000000" class=""></path><path d="M357.2 454.14a118.13 118.13 0 0 0 9.17-19.3L501.05 151.2a57.45 57.45 0 0 0-38.67-90.65l-361.62-57A77.48 77.48 0 0 0 6.25 108l136.7 318.49a117.48 117.48 0 0 0 214.22 27.79Zm16-68.59a117.5 117.5 0 0 0-233.78-5.38L38.1 144.2a77.44 77.44 0 0 0 95.29-120.3l289.5 45.6a57.48 57.48 0 0 0 52 101.74ZM497 117.5A42.5 42.5 0 1 1 454.5 75a42.55 42.55 0 0 1 42.5 42.5ZM77 15l20.18 3.18A62.49 62.49 0 1 1 77 15Zm179 482a102.55 102.55 0 0 1-87.79-49.64l-11.09-25.84a102.5 102.5 0 1 1 195.36 7.58l-8.56 18A102.53 102.53 0 0 1 256 497Z" fill="#ef4444" opacity="1" data-original="#000000" class=""></path></g></svg>