<svg xmlns="http://www.w3.org/2000/svg" version="1.1" xmlns:xlink="http://www.w3.org/1999/xlink" width="512" height="512" x="0" y="0" viewBox="0 0 512 512" style="enable-background:new 0 0 512 512" xml:space="preserve" class=""><g><path d="M411 0H101a27.54 27.54 0 0 0-27.5 27.5v210A27.54 27.54 0 0 0 101 265h55a7.51 7.51 0 0 0 7.28-5.68l.59-2.39a94.83 94.83 0 0 1 60.4-66.49l-12.63 203.25a67.49 67.49 0 1 0 88.72 0l-12.63-203.25a94.85 94.85 0 0 1 60.4 66.49l.59 2.39A7.51 7.51 0 0 0 356 265h55a27.54 27.54 0 0 0 27.5-27.5v-210A27.54 27.54 0 0 0 411 0ZM101 15h310a12.52 12.52 0 0 1 12.5 12.5V60h-335V27.5A12.52 12.52 0 0 1 101 15Zm207.5 429.5A52.5 52.5 0 1 1 256 392a52.56 52.56 0 0 1 52.5 52.5Zm-23.81-61.08a67.32 67.32 0 0 0-57.38 0l12.23-197a95.45 95.45 0 0 1 32.92 0ZM411 250h-49.2a110 110 0 0 0-211.6 0H101a12.52 12.52 0 0 1-12.5-12.5V75h335v162.5A12.52 12.52 0 0 1 411 250Z" fill="#ef4444" opacity="1" data-original="#000000" class=""></path><path d="M256 90a32.5 32.5 0 1 0 32.5 32.5A32.54 32.54 0 0 0 256 90Zm0 50a17.5 17.5 0 1 1 17.5-17.5A17.52 17.52 0 0 1 256 140ZM256 412a32.5 32.5 0 1 0 32.5 32.5A32.54 32.54 0 0 0 256 412Zm0 50a17.5 17.5 0 1 1 17.5-17.5A17.52 17.52 0 0 1 256 462Z" fill="#ef4444" opacity="1" data-original="#000000" class=""></path></g></svg>