<svg xmlns="http://www.w3.org/2000/svg" version="1.1" xmlns:xlink="http://www.w3.org/1999/xlink" width="512" height="512" x="0" y="0" viewBox="0 0 448 448" style="enable-background:new 0 0 512 512" xml:space="preserve" class=""><g><path d="M394.667 0c-29.397 0-53.333 23.936-53.333 53.333 0 25.749 18.347 47.296 42.667 52.245v107.755H234.667V105.579c24.32-4.949 42.667-26.496 42.667-52.245C277.333 23.936 253.397 0 224 0s-53.333 23.936-53.333 53.333c0 25.749 18.347 47.296 42.667 52.245v107.755H64V105.579c24.32-4.949 42.667-26.496 42.667-52.245C106.667 23.936 82.731 0 53.333 0S0 23.936 0 53.333c0 25.749 18.347 47.296 42.667 52.245v236.843C18.347 347.371 0 368.917 0 394.667 0 424.064 23.936 448 53.333 448s53.333-23.936 53.333-53.333c0-25.749-18.347-47.296-42.667-52.245V234.667h149.333v107.755c-24.32 4.949-42.667 26.496-42.667 52.245C170.667 424.064 194.603 448 224 448s53.333-23.936 53.333-53.333c0-25.749-18.347-47.296-42.667-52.245V234.667h160c5.888 0 10.667-4.779 10.667-10.667V105.579C429.653 100.629 448 79.083 448 53.333 448 23.936 424.064 0 394.667 0zM85.333 394.667c0 17.643-14.357 32-32 32s-32-14.357-32-32 14.357-32 32-32 32 14.357 32 32zm-32-309.334c-17.643 0-32-14.357-32-32s14.357-32 32-32 32 14.357 32 32-14.357 32-32 32zM256 394.667c0 17.643-14.357 32-32 32s-32-14.357-32-32 14.357-32 32-32 32 14.357 32 32zM224 85.333c-17.643 0-32-14.357-32-32s14.357-32 32-32 32 14.357 32 32-14.357 32-32 32zm170.667 0c-17.643 0-32-14.357-32-32s14.357-32 32-32 32 14.357 32 32-14.358 32-32 32z" fill="#ef4444" opacity="1" data-original="#000000" class=""></path></g></svg>