<svg xmlns="http://www.w3.org/2000/svg" version="1.1" xmlns:xlink="http://www.w3.org/1999/xlink" width="512" height="512" x="0" y="0" viewBox="0 0 64 64" style="enable-background:new 0 0 512 512" xml:space="preserve" class=""><g><path d="M7.79 56.354a.5.5 0 0 0 .707 0l5.154-5.154a3.528 3.528 0 0 0 4.64-.318l3.059-3.059 1.666 1.666a.5.5 0 0 0 .707 0l23.64-23.639a.5.5 0 0 0 0-.707l-2.512-2.513 7.275-7.275 3.374 3.377a.5.5 0 0 0 .707-.707L45.832 7.646a.5.5 0 1 0-.707.708L48.5 11.73l-7.275 7.275-2.511-2.512a.516.516 0 0 0-.707 0l-23.64 23.641a.5.5 0 0 0 0 .707l1.953 1.952-3.058 3.059a3.526 3.526 0 0 0-.319 4.642L7.79 55.646a.5.5 0 0 0 0 .708zm41.418-43.917 2.211 2.211-7.275 7.275-2.211-2.211zm-10.847 5.117L46.3 25.5 23.369 48.429l-7.941-7.942zM13.969 46.559l3.058-3.059 3.616 3.616-3.059 3.059a2.619 2.619 0 0 1-3.615 0 2.557 2.557 0 0 1 0-3.616z" fill="#ef4444" opacity="1" data-original="#000000"></path></g></svg>