<svg xmlns="http://www.w3.org/2000/svg" version="1.1" xmlns:xlink="http://www.w3.org/1999/xlink" width="512" height="512" x="0" y="0" viewBox="0 0 512 512" style="enable-background:new 0 0 512 512" xml:space="preserve" class=""><g><path d="M506.88 75.85 436.16 5.13a17.5 17.5 0 0 0-24.76 0l-28.29 28.29a17.53 17.53 0 0 0 0 24.75l1.77 1.76-24.77 24.78-9.73-9.71a27.66 27.66 0 0 0-30.62-5.68L205 120.3a7.46 7.46 0 0 0-2.26 1.55L13.92 310.69a47.49 47.49 0 0 0 0 67.18l120.23 120.24a47.57 47.57 0 0 0 67.19 0l188.84-188.84a7.64 7.64 0 0 0 1.55-2.26l51-114.75a27.67 27.67 0 0 0-5.73-30.62l-9.75-9.75 24.78-24.77 1.77 1.78a17.54 17.54 0 0 0 24.75 0l28.29-28.3a17.51 17.51 0 0 0 .04-24.75zM166.69 179.12 332.9 345.33l-88.41 88.41L78.28 267.53zm24 308.38a32.53 32.53 0 0 1-46 0L24.52 367.27a32.52 32.52 0 0 1 0-46l43.16-43.15 166.21 166.23zM429 186.17l-50.42 113.48-35.07 35.07L177.3 168.51l35.08-35.07L325.86 83a12.6 12.6 0 0 1 13.92 2.59l86.65 86.66a12.56 12.56 0 0 1 2.57 13.92zm-12.33-44.88-46-46 24.78-24.77 46 46zM496.28 90 468 118.29a2.52 2.52 0 0 1-3.54 0l-70.74-70.73a2.51 2.51 0 0 1 0-3.54L422 15.73a2.48 2.48 0 0 1 1.77-.73 2.52 2.52 0 0 1 1.77.73l70.73 70.73a2.51 2.51 0 0 1 0 3.54z" fill="#ef4444" opacity="1" data-original="#000000" class=""></path><path d="M171.1 340.9a37.53 37.53 0 0 0 53.05 0c13-13 17.33-54.74 18.08-63a7.51 7.51 0 0 0-8.15-8.15c-8.23.75-50 5.1-63 18.08a37.53 37.53 0 0 0 0 53zm10.61-42.44c5.69-5.69 27-10.4 44.54-12.71-2.31 17.49-7 38.85-12.71 44.54a22.51 22.51 0 0 1-31.83-31.83z" fill="#ef4444" opacity="1" data-original="#000000" class=""></path></g></svg>