<svg xmlns="http://www.w3.org/2000/svg" version="1.1" xmlns:xlink="http://www.w3.org/1999/xlink" width="512" height="512" x="0" y="0" viewBox="0 0 512 512" style="enable-background:new 0 0 512 512" xml:space="preserve" class=""><g><path d="M503.94 49.21 462.81 8.07a27.57 27.57 0 0 0-39 0l-32.62 32.65-9.6-9.6a27.61 27.61 0 0 0-39 0L293 80.77a27.58 27.58 0 0 0 0 39l16 16-24.85 24.86-16-16a27.56 27.56 0 1 0-39 39l16 16-17.8 17.67-16-16a27.56 27.56 0 0 0-39 39l16 16-17.73 17.7-16-16a27.56 27.56 0 0 0-39 39l16 16-44.21 44.24a78.61 78.61 0 0 0-9.74-.62 77.71 77.71 0 1 0 77.71 77.71 78.61 78.61 0 0 0-.62-9.74L199 380.36l16 16a27.58 27.58 0 0 0 39 0 27.58 27.58 0 0 0 0-39l-16-16 17.76-17.76 16 16a27.59 27.59 0 0 0 39 0 27.61 27.61 0 0 0 0-39l-16-16 17.76-17.76 16 16a27.58 27.58 0 0 0 39 0 27.57 27.57 0 0 0 0-39l-16-16 24.86-24.85 16 16a27.56 27.56 0 0 0 39 0l49.65-49.64a27.57 27.57 0 0 0 0-39l-9.58-9.58 32.64-32.65a27.58 27.58 0 0 0-.15-38.91zM122 478.67a62.7 62.7 0 1 1 18.37-44.34A62.78 62.78 0 0 1 122 478.67zm28.62-71.17a78 78 0 0 0-46.13-46.13l37.75-37.75 46.13 46.13zm92.69-21.77a12.6 12.6 0 0 1-17.77 0l-99.29-99.29A12.56 12.56 0 0 1 144 268.68L243.32 368a12.58 12.58 0 0 1 0 17.73zm-16-55-46.13-46.13L199 266.89 245.11 313zm72.75-1.73a12.57 12.57 0 0 1-17.76 0L183 229.7a12.56 12.56 0 0 1 17.76-17.76l99.29 99.29a12.57 12.57 0 0 1 .01 17.77zm-16-54.95L238 227.91l17.76-17.76 46.13 46.13zm76.39-10.67a12.56 12.56 0 0 1-21.45 8.87L239.75 173a12.56 12.56 0 0 1 17.76-17.76l99.29 99.29a12.49 12.49 0 0 1 3.68 8.84zm-19.62-46.08-46.13-46.13 24.85-24.85 46.13 46.13zm129.44-58.52-49.64 49.64a12.55 12.55 0 0 1-17.76 0l-99.29-99.29a12.57 12.57 0 0 1 0-17.76l49.64-49.64a12.58 12.58 0 0 1 17.76 0L470.27 141a12.55 12.55 0 0 1 0 17.76zm23.06-81.21-32.64 32.65-58.9-58.9 32.65-32.64a12.55 12.55 0 0 1 17.76 0l41.13 41.13a12.57 12.57 0 0 1 0 17.76z" fill="#ef4444" opacity="1" data-original="#000000" class=""></path><path d="M77.71 396.7a37.59 37.59 0 1 0 26.58 11 37.34 37.34 0 0 0-26.58-11zm16 53.56a22.57 22.57 0 1 1 6.62-16 22.61 22.61 0 0 1-6.65 16z" fill="#ef4444" opacity="1" data-original="#000000" class=""></path></g></svg>