<svg xmlns="http://www.w3.org/2000/svg" version="1.1" xmlns:xlink="http://www.w3.org/1999/xlink" width="512" height="512" x="0" y="0" viewBox="0 0 512 512" style="enable-background:new 0 0 512 512" xml:space="preserve" class=""><g><path d="m490.15 78.64 10.11-10.11a40.16 40.16 0 0 0-56.79-56.79l-10.11 10.11-2.36-2.39a29.28 29.28 0 0 0-41.4 0l-76.2 76.2a29.26 29.26 0 0 0-35.4 4.62l-17.79 17.78-2.4-2.39a29.3 29.3 0 0 0-41.39 0L201 131.06a29.3 29.3 0 0 0 0 41.4l18.13 18.13L36.9 398.84a54.14 54.14 0 0 0-12.11 47L8.57 462A29.27 29.27 0 0 0 50 503.43l16.2-16.23a54.65 54.65 0 0 0 11.4 1.22 53.91 53.91 0 0 0 35.56-13.32l208.25-182.23L339.54 311a29.31 29.31 0 0 0 41.4 0l15.39-15.39a29.3 29.3 0 0 0 0-41.39l-2.39-2.4L411.72 234a29.26 29.26 0 0 0 4.62-35.4l76.2-76.2a29.28 29.28 0 0 0 0-41.4Zm-36.07-56.29a25.15 25.15 0 1 1 35.57 35.57L479.54 68 444 32.46ZM39.36 492.82a14.27 14.27 0 1 1-20.18-20.18l11.46-11.46a53.52 53.52 0 0 0 20.18 20.18Zm231.16-175.35-11.42-11.42a7.5 7.5 0 0 0-10.61 10.61l10.72 10.71-17.32 15.15-11.75-11.75a7.5 7.5 0 1 0-10.61 10.61l11.05 11-17.32 15.16-12.08-12.04a7.5 7.5 0 1 0-10.6 10.6L202 377.47l-17.32 15.16-12.41-12.41a7.5 7.5 0 1 0-10.6 10.61l11.7 11.7L156 417.68 143.27 405a7.5 7.5 0 0 0-10.61 10.6l12 12-17.31 15.15-13.06-13.06a7.5 7.5 0 0 0-10.61 10.61l12.35 12.35-12.77 11.18a39 39 0 0 1-55.09-55.09L59.37 396l12.86 12.86a7.5 7.5 0 0 0 10.61-10.66l-13.57-13.57 15.15-17.31L97 379.85a7.5 7.5 0 0 0 10.61-10.6L94.32 356l15.15-17.32 12.21 12.22a7.5 7.5 0 1 0 10.61-10.61l-12.92-12.92 15.16-17.32 11.88 11.89A7.5 7.5 0 0 0 157 311.33l-12.6-12.59 15.16-17.32L171.13 293a7.5 7.5 0 0 0 10.61-10.61l-12.26-12.26 15.15-17.32L195.86 264a7.5 7.5 0 0 0 10.6-10.61l-11.93-11.93 35.23-40.26 81 81ZM385.72 285l-15.39 15.4a14.29 14.29 0 0 1-20.18 0L211.6 161.85a14.29 14.29 0 0 1 0-20.18l15.4-15.39a14.27 14.27 0 0 1 20.18 0l138.54 138.54a14.27 14.27 0 0 1 0 20.18Zm15.4-61.57-17.79 17.78-112.54-112.54 17.78-17.79a14.27 14.27 0 0 1 20.18 0l92.37 92.37a14.27 14.27 0 0 1 0 20.18Zm80.82-111.61-75.52 75.52-81.76-81.76 75.52-75.52a14.29 14.29 0 0 1 20.18 0l61.58 61.58a14.29 14.29 0 0 1 0 20.18Z" fill="#ef4444" opacity="1" data-original="#000000" class=""></path></g></svg>